<?xml version="1.0" encoding="utf-8"?>
<!-- Generator: Adobe Illustrator 22.1.0, SVG Export Plug-In . SVG Version: 6.00 Build 0)  -->
<svg version="1.1" id="Calque_1" xmlns="http://www.w3.org/2000/svg" xmlns:xlink="http://www.w3.org/1999/xlink" x="0px" y="0px"
	 viewBox="0 0 300 300" style="enable-background:new 0 0 300 300;" xml:space="preserve">
<style type="text/css">
	.st0{fill:#991A16;}
</style>
<path class="st0" d="M276.2,226.7c-17,9.8-33,19-49,28.2c-24.6,14.1-49.3,28.2-73.8,42.4c-3.1,1.8-5.5,2.6-9.2,0.5
	c-17.3-10.3-34.8-20.3-52.4-30.1c-3.8-2.1-4.8-4.6-4.7-8.6c0.2-21.4,0.2-42.8,0-64.2c0-4.1,1.1-6.5,4.9-8.6
	c17.6-9.9,34.9-20,52.3-30.2c2.8-1.6,5.2-2.7,8.6-0.7C193.7,179.1,234.4,202.6,276.2,226.7z"/>
<path class="st0" d="M264.8,67.5c-58.8,34-117.5,67.8-176.2,101.7c-2.2-2-1.3-4-1.3-5.8c-0.1-40.8,0-81.6-0.1-122.4
	c0-4,0.8-6.5,4.7-8.6c17.4-9.6,34.5-19.7,51.8-29.6c2.8-1.6,5.1-2.8,8.6-0.8c36.9,21.4,74,42.5,111,63.8
	C263.7,66.2,264.1,66.9,264.8,67.5z"/>
<path class="st0" d="M70,254.9c-16.8-9.6-32.7-18.8-48.8-27.8c-2.8-1.6-3.4-3.6-3.4-6.5c0.1-47.1,0-94.2,0-141.4
	c0-2.2-0.2-4.2,2.3-5.6C36.6,64.3,52.9,54.9,70,45.1C70,115.3,70,184.6,70,254.9z"/>
<path class="st0" d="M278.8,78.5c0.2,2.4,0.3,3.6,0.3,4.7c0,39.8,0,79.7,0.1,119.5c0,4.2,0,6.7-5.2,3.7
	c-35.2-20.5-70.5-40.8-105.7-61.2c-0.4-0.2-0.6-0.7-1.5-1.9C203.7,121.9,240.7,100.5,278.8,78.5z"/>
</svg>
