<?xml version="1.0" encoding="utf-8"?>
<!-- Generator: Adobe Illustrator 22.1.0, SVG Export Plug-In . SVG Version: 6.00 Build 0)  -->
<svg version="1.1" id="Calque_1" xmlns="http://www.w3.org/2000/svg" xmlns:xlink="http://www.w3.org/1999/xlink" x="0px" y="0px"
	 viewBox="0 0 300 300" style="enable-background:new 0 0 300 300;" xml:space="preserve">
<style type="text/css">
	.st0{fill:#FFFFFF;}
	.st1{fill:#990000;}
</style>
<polygon class="st0" points="279.5,225.2 279.5,75.7 150,1 20.5,75.7 20.5,225.2 150,300 "/>
<g>
	<path class="st1" d="M264.2,219.1c-15.2,8.8-29.5,17-43.8,25.2c-22,12.6-44.1,25.2-66,37.9c-2.8,1.6-4.9,2.3-8.2,0.4
		c-15.5-9.2-31.1-18.2-46.9-26.9c-3.4-1.9-4.3-4.1-4.2-7.7c0.2-19.1,0.2-38.3,0-57.4c0-3.7,1-5.8,4.4-7.7
		c15.7-8.9,31.2-17.9,46.8-27c2.5-1.4,4.7-2.4,7.7-0.6C190.4,176.5,226.8,197.5,264.2,219.1z"/>
	<path class="st1" d="M254,76.7c-52.6,30.4-105.1,60.6-157.6,91c-2-1.8-1.2-3.6-1.2-5.2c-0.1-36.5,0-73-0.1-109.5
		c0-3.6,0.7-5.8,4.2-7.7c15.6-8.6,30.9-17.6,46.3-26.5c2.5-1.4,4.6-2.5,7.7-0.7c33,19.1,66.2,38,99.3,57.1
		C253.1,75.5,253.4,76.1,254,76.7z"/>
	<path class="st1" d="M79.8,244.3c-15-8.6-29.3-16.8-43.7-24.9c-2.5-1.4-3-3.2-3-5.8c0.1-42.1,0-84.3,0-126.5c0-2-0.2-3.8,2.1-5
		c14.8-8.3,29.3-16.7,44.6-25.5C79.8,119.4,79.8,181.4,79.8,244.3z"/>
	<path class="st1" d="M266.6,86.5c0.2,2.1,0.3,3.2,0.3,4.2c0,35.6,0,71.3,0.1,106.9c0,3.8,0,6-4.7,3.3
		c-31.5-18.3-63.1-36.5-94.6-54.7c-0.4-0.2-0.5-0.6-1.3-1.7C199.4,125.3,232.5,106.2,266.6,86.5z"/>
</g>
</svg>
